# xmcd CD database file
# Copyright (C) 1996 Ti Kan
#
# Track frame offsets:
#  150
#  11842
#  21745
#  34587
#  45910
#  57632
#  69912
#  80572
#  92480
#  102152
#  114525
#  127952
#  139205
#  152927
#  166967
#  179690
#  189980
#  201980
#
# Disc length: 2868 seconds
#
# Revision: 1
# Processed by: cddbd v1.4b41PL1 Copyright (c) Steve Scherf et al.
# Submitted via: CDWizzard Release:4.12
#
DISCID=f90b3212
DTITLE=Lightnin' Slim - Rooster Blues
DYEAR=1900
DGENRE=
TTITLE0=Rooster Blues
TTITLE1=Long Leanie Mama
TTITLE2=My Starter Won't Work
TTITLE3="GI" Slim
TTITLE4=Lightnin's Troubles
TTITLE5=Bed Bug Blues
TTITLE6=Hoo-Doo Blues
TTITLE7=It's Mighty Crazy
TTITLE8=Sweet Little Woman
TTITLE9=Tom Cat Blues
TTITLE10=Feelin' Awful Blues
TTITLE11=I'm Leaving You Baby
TTITLE12=Lightnin' Blues
TTITLE13=I Can't Be Successful
TTITLE14=Sugar Plum
TTITLE15=Just Made Twenty One
TTITLE16=Goin' Home
TTITLE17=Wonderin' And Goin'
EXTD=
EXTT0=
EXTT1=
EXTT2=
EXTT3=
EXTT4=
EXTT5=
EXTT6=
EXTT7=
EXTT8=
EXTT9=
EXTT10=
EXTT11=
EXTT12=
EXTT13=
EXTT14=
EXTT15=
EXTT16=
EXTT17=
PLAYORDER=
